# xmcd CD database file
# Copyright (C) 1997 Ti Kan
# 
# Track frame offsets:
#     182
#     11352
#     26122
#     48905
#     64515
#     76685
#     96472
#     112372
#     128397
#     147777
#     164047
#     187665
#     199635
#     212557
# 
# Disc length: 3021 seconds
# 
# Revision: 1
# Processed by: cddbd v1.4b41PL1 Copyright (c) Steve Scherf et al.
# Submitted via: DiscPlay 4.0.3
# 
DISCID=b50bcb0e
DTITLE=B. B. King - Everyday I Have THe Blues
DYEAR=1900
DGENRE=
TTITLE0=Catfish Blues
TTITLE1=B. B. Boogie
TTITLE2=Everyday I Have The Blues
TTITLE3=Walkin' And Cryin'
TTITLE4=Please Love Me
TTITLE5=How Blue Can You Get
TTITLE6=The Letter
TTITLE7=Long Nights
TTITLE8=Sweet
TTITLE9=It's My Own Fault Baby
TTITLE10=You've Done Lost Your Good Thing Now
TTITLE11=Paying The Cost To The Boss
TTITLE12=I'm Working On The Building
TTITLE13=Save a Seat For Me
EXTD=
EXTT0=
EXTT1=
EXTT2=
EXTT3=
EXTT4=
EXTT5=
EXTT6=
EXTT7=
EXTT8=
EXTT9=
EXTT10=
EXTT11=
EXTT12=
EXTT13=
PLAYORDER=
